<svg xmlns="http://www.w3.org/2000/svg" version="1.1" xmlns:xlink="http://www.w3.org/1999/xlink" xmlns:svgjs="http://svgjs.dev/svgjs" viewBox="0 0 1920 1080"><rect width="1920" height="1080" fill="#e01a1a"></rect><g transform="matrix(1.15,0,0,1.15,-140.2271209716796,-81)"><path d="M0,-1080C1.5389408079696594,-952.8284369024159,17.280953480020763,-581.1882416281476,9.233644847817956,-316.9706214144951C1.1863362156151478,-52.75300120084262,-41.11110525028023,230.84596635125598,-48.28385179321685,505.30572128191477C-55.45659833615346,779.7654762125735,-41.850143042004525,1054.0055283831102,-33.80283440980172,1329.7879081694578C-25.755525777598912,1605.5702879558053,-5.633805734966953,2021.631318028243,0,2160L 1920 2160 L 1920 -1080 Z" fill="url(&quot;#SvgjsLinearGradient1081&quot;)"></path><path d="M274.2857142857143,-1080C267.11653567579015,-949.7365322775897,224.6555287902484,-570.3725201253617,231.2706426261696,-298.4191936655385C237.8857564620908,-26.465867205715313,307.00674512953185,271.35308024861223,313.9763973012414,551.7199587589391C320.9460494729509,832.086837269266,279.70366949234796,1115.7354038562462,273.08855565642676,1383.7820773964231C266.47344182050557,1651.8287509366,274.0861878474997,2030.630346232737,274.2857142857143,2160L 1920 2160 L 1920 -1080 Z" fill="url(&quot;#SvgjsLinearGradient1082&quot;)"></path><path d="M548.5714285714286,-1080C559.0877454559796,-1023.260489936026,602.6248772907554,-870.9401098883276,611.6693298787352,-739.5629396161561C620.713782466715,-608.1857693439846,610.7577345747442,-437.8872302576302,602.8381440993072,-291.7369783669709C594.9185536238703,-145.58672647631155,563.1918178197224,4.692103785143331,564.1517870261133,137.33857172780012C565.1117562325043,269.9850396704569,611.7705505354381,370.6586297805653,608.5979593376527,504.1418292889698C605.4253681398673,637.6250287973743,565.481911867413,787.6828793943085,545.1162398394007,938.2377687782268C524.7505678113884,1088.792658162145,494.90365347173343,1279.4906903859196,486.40392716957876,1407.4711655924796C477.9042008674241,1535.4516407990395,483.75663179283094,1580.6991476163325,494.11788202647256,1706.120620017586C504.47913226011417,1831.5420924188393,539.4958374806025,2084.3534366695976,548.5714285714286,2160L 1920 2160 L 1920 -1080 Z" fill="url(&quot;#SvgjsLinearGradient1083&quot;)"></path><path d="M822.8571428571428,-1080C831.5050453294083,-997.6637261983894,880.8340281743684,-748.6121112898857,874.7445576907361,-585.9823571903368C868.6550872071037,-423.35260309078785,793.635208250631,-254.87096055396768,786.3203199553485,-104.22147540270667C779.005431660066,46.428009748554345,822.0799399468654,170.4361035718433,830.8552279190413,317.9145537172294C839.6305158912173,465.3930038626155,833.4943148173745,626.5379949338853,838.9720477884042,780.6492254696101C844.4497807594339,934.7604560053348,857.9505072839598,1083.3527994318201,863.7216257452199,1242.5819369315777C869.4927442064799,1401.8110744313353,880.4095057039771,1583.1210399567522,873.5987585559642,1736.0240504681558C866.7880114079513,1888.9270609795594,831.3140788069463,2089.337341744693,822.8571428571428,2160L 1920 2160 L 1920 -1080 Z" fill="url(&quot;#SvgjsLinearGradient1084&quot;)"></path><path d="M1097.142857142857,-1080C1094.152556977713,-963.8146765077452,1083.1940485756888,-608.8857083028953,1079.2010561519917,-382.8880590464713C1075.2080637282945,-156.89040979004736,1065.2395681064875,65.64901406458674,1073.1849026006746,275.9858955385436C1081.1302370948617,486.3227770125005,1127.3072961553864,678.5869820891922,1126.8730631171147,879.13322979727C1126.438830078843,1079.6794775053477,1075.5345387000875,1265.7855867532219,1070.5795043710445,1479.2633817870103C1065.6244700420016,1692.7411768207987,1092.7156316808882,2046.5438969645018,1097.142857142857,2160L 1920 2160 L 1920 -1080 Z" fill="url(&quot;#SvgjsLinearGradient1085&quot;)"></path><path d="M1371.4285714285716,-1080C1378.3687910868541,-973.4245037470066,1402.5990095327163,-654.1905327897844,1413.069889378267,-440.54702248203944C1423.5407692238175,-226.90351217429452,1446.0676126917415,-6.095520604378919,1434.253850501875,201.86106184646945C1422.4400883120084,409.8176442973178,1352.7759414292645,578.2347510575424,1342.1873162390675,807.1924722230507C1331.5986910488705,1036.1501933885588,1365.8485568291087,1350.1394675433605,1370.7220993606927,1575.6073888395188C1375.5956418922767,1801.075310135677,1371.3108260839251,2062.601231473253,1371.4285714285716,2160L 1920 2160 L 1920 -1080 Z" fill="url(&quot;#SvgjsLinearGradient1086&quot;)"></path><path d="M1645.7142857142856,-1080C1656.3021948117516,-996.7457986448379,1712.2531334959326,-762.9063964590155,1709.2417402990825,-580.4747918690273C1706.2303471022324,-398.0431872790391,1634.7233931426986,-182.7119838674319,1627.6459265331846,14.589627539929168C1620.5684599236706,211.89123894729028,1664.4748450038185,419.24424150019297,1666.7769406419989,603.3348765751393C1669.0790362801793,787.4255116500857,1642.7819486816848,952.8736189065951,1641.4585003622665,1119.1334379896075C1640.1350520428482,1285.39325707262,1658.126953166819,1427.4160307381487,1658.8362507254888,1600.893791073214C1659.5455482841585,1774.3715514082794,1647.9012798828194,2066.815631845536,1645.7142857142856,2160L 1920 2160 L 1920 -1080 Z" fill="url(&quot;#SvgjsLinearGradient1087&quot;)"></path></g><defs><linearGradient x1="0.1" y1="0" x2="0" y2="1" id="SvgjsLinearGradient1081"><stop stop-color="#e01a1a" offset="0"></stop><stop stop-color="#e01a3b" offset="0"></stop></linearGradient><linearGradient x1="0.1" y1="0" x2="0" y2="1" id="SvgjsLinearGradient1082"><stop stop-color="#e94141" offset="0"></stop><stop stop-color="#e9415d" offset="0.14285714285714285"></stop></linearGradient><linearGradient x1="0.1" y1="0" x2="0" y2="1" id="SvgjsLinearGradient1083"><stop stop-color="#ee6d6d" offset="0"></stop><stop stop-color="#ee6d82" offset="0.2857142857142857"></stop></linearGradient><linearGradient x1="0.1" y1="0" x2="0" y2="1" id="SvgjsLinearGradient1084"><stop stop-color="#f39898" offset="0"></stop><stop stop-color="#f398a7" offset="0.42857142857142855"></stop></linearGradient><linearGradient x1="0.1" y1="0" x2="0" y2="1" id="SvgjsLinearGradient1085"><stop stop-color="#f8c4c4" offset="0"></stop><stop stop-color="#f8c4cd" offset="0.5714285714285714"></stop></linearGradient><linearGradient x1="0.1" y1="0" x2="0" y2="1" id="SvgjsLinearGradient1086"><stop stop-color="#fdefef" offset="0"></stop><stop stop-color="#fdeff1" offset="0.7142857142857143"></stop></linearGradient><linearGradient x1="0.1" y1="0" x2="0" y2="1" id="SvgjsLinearGradient1087"><stop stop-color="#ffffff" offset="0"></stop><stop stop-color="#ffffff" offset="0.8571428571428571"></stop></linearGradient></defs></svg>